<?xml version="1.0" encoding="UTF-8" standalone="no"?>
<svg
   xmlns:svg="http://www.w3.org/2000/svg"
   xmlns="http://www.w3.org/2000/svg"
   version="1.1"
   width="2420"
   height="2770"
   id="svg2">
  <path
     d="M 2420,2770 H 1385 C 1017.7,2770 665.39,2624.1 405.66,2364.3 145.92,2104.6 0,1752.3 0,1385 0,1017.7 145.92,665.39 405.66,405.66 665.39,145.92 1017.7,0 1385,0 h 1035 z"
     style="fill:#20e168"
     id="path8" />
  <path
     d="m 1841,1376 q 40,0 68,28 28,28 28,68 v 576 q 0,40 -28,68 -28,28 -68,28 H 881 q -40,0 -68,-28 -28,-28 -28,-68 v -576 q 0,-40 28,-68 28,-28 68,-28 h 32 V 1056 Q 913,871 1044.5,739.5 1176,608 1361,608 1546,608 1677.5,739.5 1809,871 1809,1056 q 0,26 -19,45 -19,19 -45,19 h -64 q -26,0 -45,-19 -19,-19 -19,-45 0,-106 -75,-181 -75,-75 -181,-75 -106,0 -181,75 -75,75 -75,181 v 320 z"
     style="fill:#ffffff"
     id="unlock_alt" />
</svg>
