<?xml version="1.0" encoding="UTF-8" standalone="no"?>
<!-- Generator: Adobe Illustrator 16.0.0, SVG Export Plug-In . SVG Version: 6.00 Build 0)  -->

<svg
   xmlns:dc="http://purl.org/dc/elements/1.1/"
   xmlns:cc="http://creativecommons.org/ns#"
   xmlns:rdf="http://www.w3.org/1999/02/22-rdf-syntax-ns#"
   xmlns:svg="http://www.w3.org/2000/svg"
   xmlns="http://www.w3.org/2000/svg"
   xmlns:sodipodi="http://sodipodi.sourceforge.net/DTD/sodipodi-0.dtd"
   xmlns:inkscape="http://www.inkscape.org/namespaces/inkscape"
   version="1.1"
   id="Capa_1"
   x="0px"
   y="0px"
   width="512px"
   height="512px"
   viewBox="0 0 512 512"
   enable-background="new 0 0 512 512"
   xml:space="preserve"
   sodipodi:docname="picto-bloc.svg"
   inkscape:version="0.92.1 r15371"><sodipodi:namedview
     pagecolor="#ffffff"
     bordercolor="#666666"
     borderopacity="1"
     objecttolerance="10"
     gridtolerance="10"
     guidetolerance="10"
     inkscape:pageopacity="0"
     inkscape:pageshadow="2"
     inkscape:window-width="1549"
     inkscape:window-height="918"
     id="namedview4492"
     showgrid="false"
     inkscape:zoom="1.0338285"
     inkscape:cx="94.602182"
     inkscape:cy="210.75546"
     inkscape:window-x="261"
     inkscape:window-y="163"
     inkscape:window-maximized="0"
     inkscape:current-layer="Capa_1"
     inkscape:pagecheckerboard="true" /><metadata
     id="metadata4496"><rdf:RDF><cc:Work
         rdf:about=""><dc:format>image/svg+xml</dc:format><dc:type
           rdf:resource="http://purl.org/dc/dcmitype/StillImage" /><dc:title /></cc:Work></rdf:RDF></metadata><defs
     id="defs4494" /><path
     inkscape:connector-curvature="0"
     id="path4485"
     d="M 256,0 C 114.609,0 0,114.609 0,256 0,397.391 114.609,512 256,512 397.391,512 512,397.391 512,256 512,114.609 397.391,0 256,0 Z m 0,472 C 136.703,472 40,375.297 40,256 40,136.703 136.703,40 256,40 c 119.297,0 216,96.703 216,216 0,119.297 -96.703,216 -216,216 z"
     style="stroke:#1f74aa;stroke-opacity:1;fill:#1f74aa;fill-opacity:1;opacity:1" /><path
     inkscape:connector-curvature="0"
     style="opacity:1;fill:#1f74aa;fill-opacity:1;stroke:#1f74aa;stroke-width:1.33069909;stroke-opacity:1"
     id="path5060"
     d="M 257.20063,0.54804579 C 117.07114,0.54804579 2.7933552,115.68438 2.7933552,257.13379 c 0,141.31583 114.2777848,256.3186 254.4072748,256.3186 11.26869,0 22.27223,-0.66785 33.01064,-2.40423 113.61492,-14.69259 203.89702,-105.11869 219.1429,-219.18648 1.72345,-11.35335 2.51888,-22.97383 2.51888,-34.72789 0,-141.44941 -114.27778,-256.58574421 -254.67242,-256.58574421 z M 28.512486,257.13379 c 0,-33.3922 7.158934,-65.18159 19.885921,-93.76534 L 157.50586,464.56619 C 81.143903,427.16693 28.512486,348.22774 28.512486,257.13379 Z M 286.89694,485.80364 c -9.67781,1.20212 -19.62076,1.86997 -29.69631,1.86997 -22.40481,0 -44.01418,-3.33922 -64.43041,-9.48339 l 24.92371,-73.46287 h 0.13257 L 261.17782,277.16912 331.574,471.3782 c 0.53029,1.06855 1.19315,2.13711 1.72344,3.07209 -14.84815,5.34275 -30.35918,9.08268 -46.4005,11.35335 z m 1.9886,-336.86061 c 13.78758,-0.66784 26.11685,-2.13711 26.11685,-2.13711 12.46185,-1.33569 10.87097,-19.76818 -1.4583,-18.96677 0,0 -37.1204,2.93852 -60.9835,2.93852 -22.40482,0 -60.32065,-2.93852 -60.32065,-2.93852 -12.19671,-0.80141 -13.78757,18.29893 -1.32573,18.96677 0,0 11.53383,1.46927 23.99568,2.13711 l 35.6621,98.44022 -50.11253,151.3335 -83.38832,-249.77372 c 13.92015,-0.66784 26.24942,-2.13711 26.24942,-2.13711 12.19669,-1.33569 10.87098,-19.76818 -1.4583,-18.96677 0,0 -36.98782,2.93852 -60.983501,2.93852 -4.374906,0 -9.412675,-0.13357 -14.71559,-0.26714 C 106.99561,68.000312 177.39178,26.727538 257.20063,26.727538 c 59.65778,0 113.88007,22.973843 154.57993,60.373119 -1.06058,0 -1.98859,-0.133568 -3.04918,-0.133568 -22.53738,0 -38.44611,19.768191 -38.44611,41.005621 0,18.96679 10.87096,34.99505 22.40481,53.96181 8.74981,15.36043 18.95791,35.12862 18.95791,63.57879 0,19.76819 -5.8332,44.61198 -17.36704,74.39782 l -22.93509,76.93566 z m 83.38832,307.47547 18.16247,-53.02683 51.70342,-150.66564 c 13.1247,-32.85795 17.36704,-59.171 17.36704,-82.54556 0,-8.41483 -0.53031,-16.42897 -1.45831,-23.77525 17.89734,32.85794 28.10544,70.52435 28.10544,110.72857 0,10.6855 -0.66286,21.10387 -1.9886,31.38868 -9.81037,71.72646 -52.36626,133.03456 -111.89146,167.89603 z" /></svg>