<svg xmlns:dc="http://purl.org/dc/elements/1.1/" xmlns:cc="http://creativecommons.org/ns#" xmlns:rdf="http://www.w3.org/1999/02/22-rdf-syntax-ns#"  xmlns="http://www.w3.org/2000/svg" xmlns:sodipodi="http://sodipodi.sourceforge.net/DTD/sodipodi-0.dtd" xmlns:inkscape="http://www.inkscape.org/namespaces/inkscape" version="1.1" id="Capa_1" x="0px" y="0px" width="512px" height="512px" viewBox="0 0 512 512" enable-background="new 0 0 512 512" xml:space="preserve" sodipodi:docname="picto-youtube.svg" inkscape:version="0.92.1 r15371" xmlns:xlink="http://www.w3.org/1999/xlink"><rect id="svgEditorBackground" x="0" y="0" width="512" height="512" style="fill: none; stroke: none;"/><sodipodi:namedview pagecolor="#ffffff" bordercolor="#666666" borderopacity="1" objecttolerance="10" gridtolerance="10" guidetolerance="10" inkscape:pageopacity="0" inkscape:pageshadow="2" inkscape:window-width="1384" inkscape:window-height="870" id="namedview4492" showgrid="false" inkscape:zoom="0.73102715" inkscape:cx="133.91151" inkscape:cy="210.75546" inkscape:window-x="200" inkscape:window-y="200" inkscape:window-maximized="0" inkscape:current-layer="Capa_1" inkscape:pagecheckerboard="true"/><metadata id="metadata4496"><rdf:RDF><cc:Work rdf:about=""><dc:format>image/svg+xml</dc:format><dc:type rdf:resource="http://purl.org/dc/dcmitype/StillImage"/><dc:title/></cc:Work></rdf:RDF></metadata><defs id="defs4494"/><path inkscape:connector-curvature="0" id="path4485" d="M256,0c-141.39100000000002,0,-256,114.609,-256,256c0,141.39100000000002,114.609,256,256,256c141.39100000000002,0,256,-114.60899999999998,256,-256c0,-141.39100000000002,-114.60899999999998,-256,-256,-256ZM256,472c-119.297,0,-216,-96.70299999999997,-216,-216c0,-119.297,96.703,-216,216,-216c119.29700000000003,0,216,96.703,216,216c0,119.29700000000003,-96.70299999999997,216,-216,216Z" style="stroke:#4c5164;stroke-opacity:1;fill:#4c5164;fill-opacity:1;opacity:1"/><text style="fill:#4c5164;font-family:Arial;font-size:180px;" x="139" y="317" id="language">FR</text></svg>