<?xml version="1.0" encoding="UTF-8" standalone="no"?>
<!-- Created with Inkscape (http://www.inkscape.org/) -->

<svg
   xmlns:dc="http://purl.org/dc/elements/1.1/"
   xmlns:cc="http://creativecommons.org/ns#"
   xmlns:rdf="http://www.w3.org/1999/02/22-rdf-syntax-ns#"
   xmlns:svg="http://www.w3.org/2000/svg"
   xmlns="http://www.w3.org/2000/svg"
   xmlns:sodipodi="http://sodipodi.sourceforge.net/DTD/sodipodi-0.dtd"
   xmlns:inkscape="http://www.inkscape.org/namespaces/inkscape"
   width="110.77115mm"
   height="70.964386mm"
   viewBox="0 0 110.77115 70.964386"
   version="1.1"
   id="svg1857"
   inkscape:version="0.92.3 (2405546, 2018-03-11)"
   sodipodi:docname="logo_ezpaarse_vertical.svg"
   inkscape:export-filename="/home/schurter/Images/logo_ezpaarse_vertical.png"
   inkscape:export-xdpi="146"
   inkscape:export-ydpi="146">
  <defs
     id="defs1851" />
  <sodipodi:namedview
     id="base"
     pagecolor="#ffffff"
     bordercolor="#666666"
     borderopacity="1.0"
     inkscape:pageopacity="0.0"
     inkscape:pageshadow="2"
     inkscape:zoom="1.4"
     inkscape:cx="123.78299"
     inkscape:cy="107.10811"
     inkscape:document-units="mm"
     inkscape:current-layer="layer1"
     showgrid="false"
     fit-margin-left="5"
     fit-margin-top="5"
     fit-margin-right="5"
     fit-margin-bottom="5"
     inkscape:window-width="1920"
     inkscape:window-height="1051"
     inkscape:window-x="1920"
     inkscape:window-y="0"
     inkscape:window-maximized="1" />
  <metadata
     id="metadata1854">
    <rdf:RDF>
      <cc:Work
         rdf:about="">
        <dc:format>image/svg+xml</dc:format>
        <dc:type
           rdf:resource="http://purl.org/dc/dcmitype/StillImage" />
        <dc:title></dc:title>
      </cc:Work>
    </rdf:RDF>
  </metadata>
  <g
     inkscape:label="Calque 1"
     inkscape:groupmode="layer"
     id="layer1"
     transform="translate(-59.519189,-38.511855)">
    <g
       id="g486"
       transform="matrix(0.35277777,0,0,-0.35277777,132.51827,55.111943)"
       inkscape:export-xdpi="146"
       inkscape:export-ydpi="146">
      <path
         d="M 0,0 C -0.504,1.172 -1.045,2.329 -1.619,3.471 -1.231,2.243 -0.636,1.197 0,0"
         style="fill:#52536b;fill-opacity:1;fill-rule:nonzero;stroke:none"
         id="path488"
         inkscape:connector-curvature="0" />
    </g>
    <g
       id="g490"
       transform="matrix(0.35277777,0,0,-0.35277777,117.73953,84.321167)"
       inkscape:export-xdpi="146"
       inkscape:export-ydpi="146">
      <path
         d="M 0,0 C 4.615,0.483 9.173,1.464 13.635,2.947 9.118,1.696 4.6,0.582 0,0"
         style="fill:#52536b;fill-opacity:1;fill-rule:nonzero;stroke:none"
         id="path492"
         inkscape:connector-curvature="0" />
    </g>
    <g
       id="g494"
       transform="matrix(0.35277777,0,0,-0.35277777,117.73953,84.321167)"
       inkscape:export-xdpi="146"
       inkscape:export-ydpi="146">
      <path
         d="M 0,0 C -3.579,-0.372 -7.191,-0.444 -10.812,-0.213 -7.137,-0.58 -3.545,-0.447 0,0"
         style="fill:#52536b;fill-opacity:1;fill-rule:nonzero;stroke:none"
         id="path496"
         inkscape:connector-curvature="0" />
    </g>
    <g
       id="g498"
       transform="matrix(0.35277777,0,0,-0.35277777,133.94575,60.489372)"
       inkscape:export-xdpi="146"
       inkscape:export-ydpi="146">
      <path
         d="m 0,0 c -0.381,3.651 -1.183,7.222 -2.32,10.674 5.043,-16.431 1.986,-33.783 -8.449,-48.808 -4.931,-7.178 -10.765,-12.113 -17.943,-15.7 -8.076,-4.488 -16.599,-5.837 -25.572,-5.837 -7.179,0.451 -14.357,1.796 -21.086,5.837 -4.04,2.691 -7.179,5.384 -10.769,8.522 -14.356,14.354 -16.598,39.928 -2.242,54.733 -13.908,-16.15 -9.423,-41.721 7.179,-54.733 1.345,-0.897 2.243,-1.345 3.138,-2.243 14.808,-9.869 32.302,-9.42 47.108,-1.347 12.115,7.179 20.637,17.944 23.779,31.854 4.035,16.6 -0.449,32.302 -10.767,45.312 -17.05,20.638 -47.558,25.574 -70.437,13.012 14.803,7.626 32.75,8.523 48.452,2.241 15.255,-6.279 26.92,-18.842 31.406,-34.992 3.05,-11.768 2.29,-23.529 -3.513,-34.474 -0.201,-0.357 -5.788,-10.118 -11.21,-15.171 -3.777,-3.386 -8.098,-6.117 -13.091,-7.782 -0.9,-0.445 -1.795,-0.896 -2.693,-1.345 -17.499,-5.831 -37.239,0.9 -47.109,17.047 -5.383,9.422 -7.176,20.637 -2.242,30.509 -4.487,-11.217 0,-22.882 6.728,-31.853 4.487,-4.935 9.422,-8.525 15.705,-10.768 5.382,-1.795 11.214,-2.692 17.049,-2.243 9.869,1.346 18.84,5.384 25.571,13.011 8.075,9.422 12.112,21.086 11.215,33.648 -0.896,12.56 -7.178,23.329 -16.599,31.854 -10.768,8.97 -24.675,13.008 -38.584,11.662 -16.15,-1.795 -30.956,-10.765 -40.378,-24.225 12.114,16.598 31.853,26.918 52.94,23.778 7.627,-1.348 13.909,-3.141 20.638,-7.627 6.281,-4.484 11.216,-9.421 15.255,-16.151 8.97,-14.355 8.072,-31.853 -0.45,-45.763 -4.487,-6.729 -10.768,-11.661 -17.946,-14.803 -14.806,-6.279 -32.752,-1.795 -41.722,12.112 -5.834,8.974 -5.834,20.64 0,29.163 -6.283,-11.667 -1.796,-26.472 8.97,-34.097 9.871,-6.73 22.432,-7.178 32.752,-2.245 9.422,4.938 16.149,13.012 18.396,23.78 2.689,13.01 -0.45,26.019 -8.974,35.891 -9.871,11.216 -24.675,16.152 -39.481,14.805 -0.897,0 -2.243,-0.9 -3.141,-0.9 -28.711,-4.483 -46.656,-34.994 -41.273,-62.36 -3.142,16.152 1.793,33.2 12.562,45.766 7.178,7.622 16.149,13.456 26.917,15.7 18.844,4.036 38.135,-3.589 48.004,-20.19 7.181,-12.561 6.731,-27.366 -1.345,-39.48 -4.936,-6.732 -11.216,-10.318 -18.842,-12.114 -9.87,-2.243 -21.534,1.347 -25.125,10.767 4.487,-6.281 12.562,-9.42 20.19,-8.971 16.147,0.897 27.368,17.045 26.469,32.299 -0.898,11.666 -7.628,21.537 -17.495,28.266 -6.285,4.041 -13.461,5.834 -20.641,6.281 -7.177,0 -13.907,-1.344 -20.637,-4.936 -5.383,-3.139 -9.869,-6.28 -13.907,-10.765 -4.935,-5.834 -8.525,-12.561 -10.319,-20.189 -1.348,-6.282 -1.795,-12.115 -0.898,-18.394 2.243,-12.562 8.076,-23.33 17.05,-31.852 6.728,-5.837 13.906,-9.872 22.431,-12.115 2.244,-0.452 4.04,-0.896 5.833,-1.345 1.57,-0.215 3.141,-0.372 4.712,-0.474 -0.075,0.01 -0.15,0.018 -0.226,0.024 -7.627,0.899 -15.254,2.69 -21.982,6.73 -1.796,1.343 -3.14,2.243 -4.937,3.139 -3.588,2.244 -6.279,4.935 -8.972,8.077 -1.347,1.794 -2.692,3.141 -4.039,4.936 -12.113,17.494 -12.56,39.478 0,56.973 6.732,9.422 15.705,15.255 26.918,17.051 14.358,2.693 29.614,-2.693 36.787,-15.703 -6.727,10.318 -19.288,14.805 -30.954,14.357 -16.151,-0.896 -30.059,-12.115 -34.992,-27.364 -1.795,-6.284 -2.693,-12.564 -2.244,-19.292 0.771,-9.276 4.538,-17.878 10.439,-24.962 0,0 3.791,-4.656 7.96,-7.855 0.551,-0.515 1.142,-0.959 1.791,-1.283 0.133,-0.076 0.271,-0.149 0.406,-0.227 0.337,-0.199 0.671,-0.384 1.002,-0.549 6.767,-3.66 13.922,-6.461 21.472,-7.298 9.868,-0.898 19.74,0.897 28.713,5.383 1.345,0.899 2.692,1.348 4.037,2.245 C -7.626,-41.274 2.246,-21.085 0,0"
         style="fill:#52536b;fill-opacity:1;fill-rule:nonzero;stroke:none"
         id="path500"
         inkscape:connector-curvature="0" />
    </g>
    <g
       id="g502"
       transform="matrix(0.35277777,0,0,-0.35277777,132.51827,55.111943)"
       inkscape:export-xdpi="146"
       inkscape:export-ydpi="146">
      <path
         d="M 0,0 C 0.641,-1.497 1.218,-3.022 1.726,-4.569 1.348,-3.336 0.928,-2.107 0.46,-0.886 0.304,-0.581 0.151,-0.286 0,0"
         style="fill:#52536b;fill-opacity:1;fill-rule:nonzero;stroke:none"
         id="path504"
         inkscape:connector-curvature="0" />
    </g>
    <g
       id="g506"
       transform="matrix(0.35277777,0,0,-0.35277777,130.93906,52.101267)"
       inkscape:export-xdpi="146"
       inkscape:export-ydpi="146">
      <path
         d="M 0,0 C 1.024,-1.643 1.982,-3.333 2.857,-5.063 2.795,-4.877 2.74,-4.683 2.69,-4.485 1.795,-2.691 0.896,-1.345 0,0"
         style="fill:#52536b;fill-opacity:1;fill-rule:nonzero;stroke:none"
         id="path508"
         inkscape:connector-curvature="0" />
    </g>
    <g
       id="g510"
       transform="matrix(0.35277777,0,0,-0.35277777,116.53511,81.860505)"
       inkscape:export-xdpi="146"
       inkscape:export-ydpi="146">
      <path
         d="m 0,0 c 0,-4.087 -3.313,-7.4 -7.398,-7.4 -4.088,0 -7.399,3.313 -7.399,7.4 0,4.083 3.311,7.396 7.399,7.396 C -3.313,7.396 0,4.083 0,0"
         style="fill:#5ab9c1;fill-opacity:1;fill-rule:nonzero;stroke:none"
         id="path512"
         inkscape:connector-curvature="0" />
    </g>
    <g
       id="g514"
       transform="matrix(0.35277777,0,0,-0.35277777,98.939115,65.45567)"
       inkscape:export-xdpi="146"
       inkscape:export-ydpi="146">
      <path
         d="m 0,0 c 0,-4.084 -3.313,-7.399 -7.398,-7.399 -4.088,0 -7.398,3.315 -7.398,7.399 0,4.086 3.31,7.397 7.398,7.397 C -3.313,7.397 0,4.086 0,0"
         style="fill:#5ab9c1;fill-opacity:1;fill-rule:nonzero;stroke:none"
         id="path516"
         inkscape:connector-curvature="0" />
    </g>
    <g
       id="g518"
       transform="matrix(0.35277777,0,0,-0.35277777,114.12888,46.527626)"
       inkscape:export-xdpi="146"
       inkscape:export-ydpi="146">
      <path
         d="m 0,0 c 0,-4.087 -3.312,-7.399 -7.399,-7.399 -4.085,0 -7.398,3.312 -7.398,7.399 0,4.084 3.313,7.396 7.398,7.396 C -3.312,7.396 0,4.084 0,0"
         style="fill:#5ab9c1;fill-opacity:1;fill-rule:nonzero;stroke:none"
         id="path520"
         inkscape:connector-curvature="0" />
    </g>
    <g
       id="g522"
       transform="matrix(0.35277777,0,0,-0.35277777,128.84342,70.484623)"
       inkscape:export-xdpi="146"
       inkscape:export-ydpi="146">
      <path
         d="m 0,0 c 0,-4.086 -3.312,-7.397 -7.4,-7.397 -4.084,0 -7.396,3.311 -7.396,7.397 0,4.084 3.312,7.397 7.396,7.397 C -3.312,7.397 0,4.084 0,0"
         style="fill:#5ab9c1;fill-opacity:1;fill-rule:nonzero;stroke:none"
         id="path524"
         inkscape:connector-curvature="0" />
    </g>
    <g
       id="g526"
       transform="matrix(0.35277777,0,0,-0.35277777,129.87677,47.549093)"
       inkscape:export-xdpi="146"
       inkscape:export-ydpi="146">
      <path
         d="m 0,0 c 0,-4.086 -3.313,-7.399 -7.399,-7.399 -4.085,0 -7.398,3.313 -7.398,7.399 0,4.086 3.313,7.396 7.398,7.396 C -3.313,7.396 0,4.086 0,0"
         style="fill:#5ab9c1;fill-opacity:1;fill-rule:nonzero;stroke:none"
         id="path528"
         inkscape:connector-curvature="0" />
    </g>
    <g
       id="g530"
       transform="matrix(0.35277777,0,0,-0.35277777,135.68173,63.382924)"
       inkscape:export-xdpi="146"
       inkscape:export-ydpi="146">
      <path
         d="m 0,0 c 0,-2.545 -2.062,-4.604 -4.605,-4.604 -2.544,0 -4.605,2.059 -4.605,4.604 0,2.543 2.061,4.604 4.605,4.604 C -2.062,4.604 0,2.543 0,0"
         style="fill:#5ab9c1;fill-opacity:1;fill-rule:nonzero;stroke:none"
         id="path532"
         inkscape:connector-curvature="0" />
    </g>
    <g
       id="g534"
       transform="matrix(0.35277777,0,0,-0.35277777,99.578878,50.56044)"
       inkscape:export-xdpi="146"
       inkscape:export-ydpi="146">
      <path
         d="m 0,0 c 0,-2.547 -2.063,-4.605 -4.605,-4.605 -2.545,0 -4.607,2.058 -4.607,4.605 0,2.542 2.062,4.604 4.607,4.604 C -2.063,4.604 0,2.542 0,0"
         style="fill:#5ab9c1;fill-opacity:1;fill-rule:nonzero;stroke:none"
         id="path536"
         inkscape:connector-curvature="0" />
    </g>
    <g
       id="g538"
       transform="matrix(0.35277777,0,0,-0.35277777,102.82758,78.657954)"
       inkscape:export-xdpi="146"
       inkscape:export-ydpi="146">
      <path
         d="m 0,0 c 0,-2.542 -2.063,-4.604 -4.605,-4.604 -2.545,0 -4.604,2.062 -4.604,4.604 0,2.542 2.059,4.603 4.604,4.603 C -2.063,4.603 0,2.542 0,0"
         style="fill:#5ab9c1;fill-opacity:1;fill-rule:nonzero;stroke:none"
         id="path540"
         inkscape:connector-curvature="0" />
    </g>
    <g
       id="g542"
       transform="matrix(0.35277777,0,0,-0.35277777,71.375425,91.494725)"
       inkscape:export-xdpi="146"
       inkscape:export-ydpi="146">
      <path
         d="m 0,0 c -4.392,0 -8.287,-1.699 -11.685,-5.097 -3.398,-3.399 -5.098,-7.308 -5.098,-11.728 0,-4.421 1.464,-8.287 4.393,-11.602 l 24.118,23.95 C 8.301,-1.492 4.394,0 0,0 M 0.87,-36.798 H 0.124 c -5.249,0 -9.82,1.975 -13.716,5.927 -3.894,3.948 -5.843,8.547 -5.843,13.798 0,5.248 1.935,9.791 5.803,13.634 3.866,3.839 8.645,5.759 14.338,5.759 5.689,0 10.578,-2.266 14.668,-6.797 l -26.023,-25.692 c 3.59,-2.872 7.044,-4.31 10.359,-4.31 3.316,0 6.284,0.761 8.91,2.279 2.623,1.52 4.792,3.551 6.505,6.094 v -4.227 c -3.923,-4.31 -8.673,-6.465 -14.255,-6.465"
         style="fill:#52536b;fill-opacity:1;fill-rule:nonzero;stroke:none"
         id="path544"
         inkscape:connector-curvature="0" />
    </g>
    <g
       id="g546"
       transform="matrix(0.35277777,0,0,-0.35277777,87.61696,103.30728)"
       inkscape:export-xdpi="146"
       inkscape:export-ydpi="146">
      <path
         d="m 0,0 v -2.319 h -25.693 l 21.217,34.975 h -18.979 v 2.321 H 0.248 L -21.051,0 Z"
         style="fill:#52536b;fill-opacity:1;fill-rule:nonzero;stroke:none"
         id="path548"
         inkscape:connector-curvature="0" />
    </g>
    <g
       id="g550"
       transform="matrix(0.35277777,0,0,-0.35277777,97.868894,95.158747)"
       inkscape:export-xdpi="146"
       inkscape:export-ydpi="146">
      <path
         d="M 0,0 C 0.075,0.402 0.102,0.91 0.083,1.517 0.065,2.126 0,2.631 -0.109,3.038 -0.33,3.848 -0.607,4.492 -0.938,4.971 -1.27,5.448 -1.767,5.892 -2.431,6.296 -2.982,6.629 -3.664,6.876 -4.474,7.043 -5.284,7.208 -6.159,7.31 -7.098,7.347 -8.039,7.382 -9.004,7.393 -9.999,7.374 -10.994,7.355 -11.933,7.347 -12.817,7.347 -12.929,7.31 -13.029,7.282 -13.121,7.265 -13.214,7.245 -13.314,7.236 -13.426,7.236 -13.794,7.087 -14.032,6.87 -14.144,6.574 -14.291,6.277 -14.365,5.882 -14.365,5.385 V 4.032 -1.217 -2.681 c 0,-0.534 0.092,-0.949 0.277,-1.244 0.148,-0.221 0.367,-0.387 0.662,-0.495 0.295,-0.112 0.627,-0.178 0.995,-0.194 0.368,-0.022 0.765,-0.022 1.188,0 0.424,0.016 0.82,0.027 1.188,0.027 1.952,0 3.739,0.091 5.36,0.275 1.62,0.184 2.854,0.829 3.702,1.935 0.221,0.331 0.405,0.689 0.553,1.077 0.145,0.386 0.294,0.82 0.44,1.3 M 6.08,9.061 C 6.925,7.878 7.543,6.574 7.931,5.137 8.316,3.7 8.455,1.968 8.345,-0.056 8.271,-0.868 8.141,-1.615 7.958,-2.294 7.773,-2.977 7.552,-3.611 7.294,-4.2 7.22,-4.348 7.157,-4.486 7.102,-4.614 7.045,-4.745 6.981,-4.883 6.907,-5.028 6.76,-5.288 6.622,-5.537 6.493,-5.777 6.363,-6.015 6.208,-6.245 6.023,-6.467 5.286,-7.497 4.394,-8.335 3.343,-8.981 c -1.048,-0.643 -2.237,-1.188 -3.563,-1.63 -0.406,-0.147 -0.828,-0.238 -1.27,-0.274 -0.443,-0.038 -0.885,-0.113 -1.326,-0.222 -0.221,-0.038 -0.443,-0.056 -0.664,-0.056 -0.22,0 -0.442,-0.018 -0.663,-0.055 h -2.264 -4.642 -1.52 c -0.534,0 -0.948,-0.112 -1.243,-0.331 -0.368,-0.259 -0.553,-0.711 -0.553,-1.354 v -1.906 -7.292 c 0,-0.444 0.009,-0.923 0.029,-1.439 0.018,-0.515 -0.066,-0.92 -0.249,-1.213 -0.148,-0.26 -0.479,-0.463 -0.994,-0.61 -0.259,-0.074 -0.535,-0.091 -0.83,-0.054 -0.295,0.036 -0.589,0.054 -0.883,0.054 h -3.205 c -0.406,0 -0.784,0.01 -1.132,0.028 -0.352,0.02 -0.637,0.119 -0.857,0.304 -0.222,0.185 -0.35,0.47 -0.387,0.856 -0.037,0.387 -0.056,0.783 -0.056,1.189 v 33.041 c 0,0.515 -0.009,1.122 -0.028,1.823 -0.018,0.699 0.065,1.196 0.249,1.49 0.146,0.221 0.424,0.406 0.83,0.555 0.071,0.035 0.156,0.044 0.249,0.026 0.092,-0.018 0.173,-0.009 0.248,0.028 h 15.968 c 0.332,0 0.664,0.009 0.995,0.027 0.331,0.019 0.643,-0.008 0.938,-0.081 h 0.276 c 0.185,-0.075 0.388,-0.111 0.608,-0.111 0.221,0 0.424,-0.038 0.607,-0.11 0.186,-0.037 0.351,-0.056 0.499,-0.056 0.146,0 0.312,-0.037 0.497,-0.11 0.59,-0.185 1.178,-0.36 1.768,-0.526 0.588,-0.164 1.141,-0.397 1.658,-0.69 0.183,-0.148 0.386,-0.275 0.607,-0.388 0.221,-0.11 0.442,-0.258 0.665,-0.441 0.182,-0.11 0.338,-0.23 0.469,-0.361 0.128,-0.128 0.283,-0.266 0.468,-0.412 L 4.974,10.386 C 5.416,9.944 5.784,9.502 6.08,9.061"
         style="fill:#52536b;fill-opacity:1;fill-rule:nonzero;stroke:none"
         id="path552"
         inkscape:connector-curvature="0" />
    </g>
    <g
       id="g554"
       transform="matrix(0.35277777,0,0,-0.35277777,108.06361,98.726494)"
       inkscape:export-xdpi="146"
       inkscape:export-ydpi="146">
      <path
         d="M 0,0 C 0.478,0.185 0.699,0.498 0.664,0.938 0.626,1.381 0.515,1.804 0.332,2.21 0.257,2.358 0.222,2.497 0.222,2.625 c 0,0.128 -0.038,0.267 -0.111,0.414 -0.479,1.252 -0.922,2.524 -1.327,3.813 -0.405,1.289 -0.866,2.578 -1.381,3.868 -0.073,0.185 -0.147,0.415 -0.22,0.69 -0.075,0.277 -0.166,0.534 -0.277,0.773 -0.11,0.239 -0.24,0.451 -0.389,0.635 -0.145,0.185 -0.329,0.277 -0.55,0.277 C -4.108,13.022 -4.182,12.966 -4.255,12.929 -4.33,12.892 -4.401,12.837 -4.475,12.764 -4.77,12.396 -4.982,11.951 -5.111,11.437 -5.241,10.921 -5.396,10.424 -5.58,9.946 -6.023,8.913 -6.419,7.864 -6.768,6.796 -7.119,5.728 -7.496,4.66 -7.901,3.593 -8.048,3.224 -8.178,2.862 -8.288,2.515 -8.399,2.165 -8.51,1.787 -8.619,1.381 -8.73,1.086 -8.711,0.755 -8.563,0.388 c 0.182,-0.26 0.486,-0.407 0.91,-0.444 0.424,-0.035 0.857,-0.054 1.299,-0.054 h 4.199 1.104 c 0.405,0 0.756,0.036 1.051,0.11 m 14.311,-12.651 c 0.036,-0.15 0.1,-0.334 0.193,-0.554 0.091,-0.221 0.165,-0.451 0.221,-0.691 0.054,-0.239 0.064,-0.469 0.028,-0.69 -0.037,-0.22 -0.167,-0.388 -0.388,-0.497 -0.294,-0.185 -0.782,-0.257 -1.463,-0.221 -0.682,0.036 -1.244,0.054 -1.686,0.054 H 8.619 c -0.296,0 -0.561,-0.008 -0.802,-0.026 -0.24,-0.02 -0.468,0.008 -0.689,0.082 -0.407,0.111 -0.7,0.331 -0.885,0.663 -0.184,0.294 -0.323,0.608 -0.414,0.939 -0.092,0.331 -0.211,0.664 -0.359,0.994 -0.185,0.59 -0.378,1.18 -0.58,1.769 -0.202,0.588 -0.416,1.159 -0.636,1.713 -0.109,0.331 -0.212,0.636 -0.303,0.911 -0.094,0.277 -0.195,0.526 -0.305,0.747 -0.111,0.221 -0.275,0.414 -0.497,0.579 -0.221,0.166 -0.516,0.285 -0.884,0.359 -0.185,0 -0.359,0.01 -0.526,0.028 -0.164,0.02 -0.34,0.028 -0.524,0.028 h -8.731 c -0.625,0 -1.297,0.009 -2.014,0.027 -0.72,0.019 -1.282,-0.12 -1.685,-0.413 -0.297,-0.222 -0.499,-0.518 -0.609,-0.885 -0.112,-0.368 -0.24,-0.738 -0.387,-1.105 -0.295,-0.628 -0.544,-1.281 -0.747,-1.961 -0.202,-0.682 -0.432,-1.354 -0.689,-2.016 -0.148,-0.37 -0.285,-0.757 -0.415,-1.162 -0.129,-0.404 -0.34,-0.718 -0.636,-0.938 -0.184,-0.148 -0.449,-0.25 -0.8,-0.305 -0.35,-0.054 -0.737,-0.082 -1.16,-0.082 -0.424,0 -0.856,0.008 -1.299,0.028 -0.442,0.018 -0.829,0.026 -1.16,0.026 -0.479,0 -1.059,-0.008 -1.741,-0.026 -0.682,-0.02 -1.17,0.063 -1.464,0.248 -0.185,0.111 -0.286,0.277 -0.304,0.497 -0.019,0.222 0,0.45 0.056,0.691 0.055,0.239 0.118,0.469 0.193,0.691 0.073,0.221 0.146,0.404 0.221,0.551 0.366,0.848 0.709,1.714 1.021,2.598 0.312,0.884 0.636,1.749 0.968,2.596 0.147,0.296 0.258,0.589 0.331,0.884 0.074,0.296 0.185,0.59 0.332,0.885 0.295,0.773 0.589,1.565 0.884,2.376 0.295,0.81 0.588,1.602 0.883,2.375 0.295,0.737 0.572,1.465 0.829,2.183 0.259,0.717 0.535,1.446 0.829,2.182 0.847,2.026 1.629,4.071 2.349,6.133 0.719,2.064 1.501,4.106 2.349,6.133 0.072,0.185 0.128,0.35 0.166,0.497 0.035,0.147 0.091,0.313 0.165,0.498 0.294,0.774 0.589,1.566 0.884,2.375 0.293,0.811 0.607,1.602 0.938,2.378 0.185,0.403 0.341,0.818 0.469,1.242 0.13,0.424 0.36,0.763 0.693,1.023 0.183,0.109 0.422,0.201 0.717,0.276 0.073,0.035 0.147,0.044 0.222,0.027 0.073,-0.019 0.147,-0.009 0.22,0.027 h 4.863 c 0.404,0 0.819,0.01 1.243,0.027 0.423,0.019 0.764,-0.063 1.023,-0.248 0.404,-0.22 0.672,-0.544 0.8,-0.966 C 1.151,22.479 1.308,22.045 1.491,21.604 1.75,20.977 1.989,20.36 2.211,19.753 2.43,19.145 2.671,18.529 2.928,17.902 3.002,17.681 3.074,17.46 3.149,17.239 3.224,17.017 3.296,16.797 3.371,16.578 3.665,15.84 3.941,15.113 4.199,14.393 4.456,13.674 4.732,12.948 5.028,12.211 5.763,10.37 6.455,8.509 7.1,6.63 7.744,4.752 8.455,2.892 9.227,1.051 9.3,0.904 9.346,0.764 9.365,0.636 9.383,0.507 9.43,0.368 9.503,0.222 c 0.221,-0.592 0.442,-1.18 0.664,-1.769 0.222,-0.59 0.441,-1.178 0.663,-1.769 0.146,-0.294 0.256,-0.579 0.331,-0.855 0.074,-0.277 0.165,-0.562 0.277,-0.855 0.477,-1.181 0.919,-2.36 1.325,-3.537 0.405,-1.179 0.847,-2.34 1.327,-3.481 0.072,-0.111 0.11,-0.212 0.11,-0.305 0,-0.091 0.036,-0.193 0.111,-0.302"
         style="fill:#52536b;fill-opacity:1;fill-rule:nonzero;stroke:none"
         id="path556"
         inkscape:connector-curvature="0" />
    </g>
    <g
       id="g558"
       transform="matrix(0.35277777,0,0,-0.35277777,121.41491,98.726494)"
       inkscape:export-xdpi="146"
       inkscape:export-ydpi="146">
      <path
         d="M 0,0 C 0.479,0.185 0.701,0.498 0.665,0.938 0.627,1.381 0.517,1.804 0.333,2.21 0.258,2.358 0.221,2.497 0.221,2.625 c 0,0.128 -0.035,0.267 -0.11,0.414 -0.479,1.252 -0.922,2.524 -1.325,3.813 -0.408,1.289 -0.867,2.578 -1.381,3.868 -0.074,0.185 -0.148,0.415 -0.221,0.69 -0.076,0.277 -0.167,0.534 -0.277,0.773 -0.11,0.239 -0.24,0.451 -0.387,0.635 -0.148,0.185 -0.33,0.277 -0.553,0.277 C -4.108,13.022 -4.179,12.966 -4.254,12.929 -4.328,12.892 -4.402,12.837 -4.475,12.764 -4.771,12.396 -4.981,11.951 -5.109,11.437 -5.239,10.921 -5.396,10.424 -5.58,9.946 -6.021,8.913 -6.419,7.864 -6.767,6.796 -7.117,5.728 -7.495,4.66 -7.902,3.593 -8.048,3.224 -8.176,2.862 -8.288,2.515 -8.397,2.165 -8.509,1.787 -8.618,1.381 -8.729,1.086 -8.711,0.755 -8.563,0.388 c 0.183,-0.26 0.487,-0.407 0.912,-0.444 0.422,-0.035 0.857,-0.054 1.297,-0.054 h 4.2 1.107 c 0.404,0 0.753,0.036 1.047,0.11 m 14.313,-12.651 c 0.035,-0.15 0.099,-0.334 0.191,-0.554 0.095,-0.221 0.166,-0.451 0.223,-0.691 0.055,-0.239 0.063,-0.469 0.027,-0.69 -0.036,-0.22 -0.167,-0.388 -0.386,-0.497 -0.298,-0.185 -0.784,-0.257 -1.465,-0.221 -0.682,0.036 -1.243,0.054 -1.685,0.054 H 8.62 c -0.294,0 -0.562,-0.008 -0.8,-0.026 -0.242,-0.02 -0.47,0.008 -0.691,0.082 -0.405,0.111 -0.7,0.331 -0.885,0.663 -0.183,0.294 -0.324,0.608 -0.413,0.939 -0.092,0.331 -0.214,0.664 -0.359,0.994 -0.186,0.59 -0.379,1.18 -0.581,1.769 -0.203,0.588 -0.416,1.159 -0.635,1.713 -0.111,0.331 -0.214,0.636 -0.305,0.911 -0.091,0.277 -0.193,0.526 -0.305,0.747 -0.108,0.221 -0.274,0.414 -0.496,0.579 -0.222,0.166 -0.515,0.285 -0.883,0.359 -0.184,0 -0.359,0.01 -0.527,0.028 -0.164,0.02 -0.339,0.028 -0.523,0.028 h -8.729 c -0.629,0 -1.3,0.009 -2.019,0.027 -0.716,0.019 -1.281,-0.12 -1.685,-0.413 -0.294,-0.222 -0.496,-0.518 -0.607,-0.885 -0.111,-0.368 -0.24,-0.738 -0.386,-1.105 -0.297,-0.628 -0.544,-1.281 -0.746,-1.961 -0.204,-0.682 -0.434,-1.354 -0.693,-2.016 -0.145,-0.37 -0.284,-0.757 -0.413,-1.162 -0.128,-0.404 -0.34,-0.718 -0.636,-0.938 -0.184,-0.148 -0.451,-0.25 -0.8,-0.305 -0.351,-0.054 -0.738,-0.082 -1.161,-0.082 -0.424,0 -0.855,0.008 -1.297,0.028 -0.443,0.018 -0.83,0.026 -1.161,0.026 -0.48,0 -1.059,-0.008 -1.74,-0.026 -0.682,-0.02 -1.171,0.063 -1.465,0.248 -0.184,0.111 -0.286,0.277 -0.304,0.497 -0.019,0.222 0,0.45 0.056,0.691 0.055,0.239 0.12,0.469 0.193,0.691 0.073,0.221 0.147,0.404 0.221,0.551 0.368,0.848 0.708,1.714 1.022,2.598 0.312,0.884 0.635,1.749 0.967,2.596 0.146,0.296 0.257,0.589 0.332,0.884 0.072,0.296 0.184,0.59 0.331,0.885 0.295,0.773 0.589,1.565 0.884,2.376 0.295,0.81 0.589,1.602 0.885,2.375 0.294,0.737 0.569,1.465 0.828,2.183 0.258,0.717 0.534,1.446 0.827,2.182 0.848,2.026 1.631,4.071 2.35,6.133 0.719,2.064 1.501,4.106 2.349,6.133 0.073,0.185 0.127,0.35 0.164,0.497 0.037,0.147 0.093,0.313 0.165,0.498 0.296,0.774 0.591,1.566 0.886,2.375 0.294,0.811 0.607,1.602 0.938,2.378 0.185,0.403 0.34,0.818 0.47,1.242 0.13,0.424 0.36,0.763 0.691,1.023 0.184,0.109 0.422,0.201 0.718,0.276 0.073,0.035 0.147,0.044 0.223,0.027 0.071,-0.019 0.144,-0.009 0.22,0.027 h 4.862 c 0.403,0 0.818,0.01 1.242,0.027 0.422,0.019 0.765,-0.063 1.022,-0.248 0.406,-0.22 0.672,-0.544 0.802,-0.966 0.13,-0.424 0.285,-0.858 0.469,-1.299 C 1.751,20.977 1.99,20.36 2.21,19.753 2.433,19.145 2.673,18.529 2.928,17.902 3.004,17.681 3.077,17.46 3.15,17.239 3.223,17.017 3.297,16.797 3.372,16.578 3.666,15.84 3.943,15.113 4.199,14.393 4.458,13.674 4.733,12.948 5.027,12.211 5.765,10.37 6.456,8.509 7.101,6.63 7.745,4.752 8.455,2.892 9.227,1.051 9.302,0.904 9.348,0.764 9.368,0.636 9.386,0.507 9.429,0.368 9.504,0.222 c 0.223,-0.592 0.442,-1.18 0.664,-1.769 0.222,-0.59 0.441,-1.178 0.664,-1.769 0.146,-0.294 0.255,-0.579 0.331,-0.855 0.073,-0.277 0.164,-0.562 0.274,-0.855 0.479,-1.181 0.921,-2.36 1.329,-3.537 0.403,-1.179 0.845,-2.34 1.324,-3.481 0.074,-0.111 0.11,-0.212 0.11,-0.305 0,-0.091 0.038,-0.193 0.113,-0.302"
         style="fill:#52536b;fill-opacity:1;fill-rule:nonzero;stroke:none"
         id="path560"
         inkscape:connector-curvature="0" />
    </g>
    <g
       id="g562"
       transform="matrix(0.35277777,0,0,-0.35277777,136.54025,94.886086)"
       inkscape:export-xdpi="146"
       inkscape:export-ydpi="146">
      <path
         d="M 0,0 C 0.076,0.403 0.084,0.9 0.029,1.492 -0.026,2.08 -0.09,2.52 -0.164,2.817 c -0.072,0.147 -0.111,0.276 -0.111,0.385 0,0.112 -0.038,0.223 -0.11,0.333 -0.441,1.14 -1.253,1.969 -2.431,2.486 -0.624,0.293 -1.348,0.46 -2.155,0.5 -0.81,0.034 -1.657,0.053 -2.541,0.053 h -6.41 c -0.074,-0.075 -0.148,-0.102 -0.221,-0.082 -0.075,0.017 -0.148,0.029 -0.22,0.029 -0.444,-0.112 -0.739,-0.298 -0.884,-0.556 -0.188,-0.295 -0.268,-0.673 -0.25,-1.132 0.02,-0.459 0.03,-0.912 0.03,-1.353 v -5.138 -1.326 c 0,-0.443 0.088,-0.793 0.275,-1.05 0.147,-0.222 0.385,-0.369 0.716,-0.444 0.333,-0.073 0.7,-0.127 1.106,-0.166 0.404,-0.035 0.828,-0.044 1.273,-0.026 0.44,0.019 0.826,0.026 1.159,0.026 h 3.26 c 0.259,0 0.534,-0.007 0.829,-0.026 0.295,-0.018 0.553,0.009 0.774,0.083 h 0.718 c 0.294,0.073 0.579,0.109 0.857,0.109 0.274,0 0.539,0.038 0.8,0.113 0.626,0.183 1.179,0.422 1.659,0.718 0.476,0.294 0.883,0.68 1.215,1.158 0.221,0.334 0.386,0.7 0.495,1.106 C -0.22,-0.978 -0.108,-0.517 0,0 m 9.117,-24.919 c 0.074,-0.224 0.065,-0.425 -0.026,-0.607 -0.092,-0.187 -0.194,-0.314 -0.304,-0.388 -0.221,-0.185 -0.525,-0.269 -0.912,-0.248 -0.386,0.017 -0.783,0.026 -1.187,0.026 H 3.646 c -0.587,0 -1.103,0.028 -1.545,0.083 -0.443,0.056 -0.773,0.267 -0.993,0.636 -0.298,0.478 -0.462,1.07 -0.497,1.768 -0.038,0.699 -0.131,1.362 -0.277,1.987 0,0.148 -0.012,0.287 -0.027,0.416 -0.019,0.128 -0.028,0.249 -0.028,0.36 -0.112,0.442 -0.167,0.912 -0.167,1.409 0,0.498 -0.036,0.946 -0.112,1.353 -0.038,0.11 -0.053,0.278 -0.053,0.496 -0.075,0.406 -0.138,0.82 -0.195,1.245 -0.056,0.423 -0.137,0.837 -0.247,1.242 -0.295,0.848 -0.645,1.603 -1.051,2.266 -0.405,0.664 -0.975,1.16 -1.709,1.491 -0.185,0.074 -0.371,0.128 -0.555,0.168 -0.185,0.035 -0.387,0.091 -0.609,0.165 -0.663,0.22 -1.428,0.331 -2.293,0.331 h -2.568 -4.532 c -0.296,-0.075 -0.551,-0.129 -0.771,-0.166 -0.224,-0.037 -0.408,-0.148 -0.554,-0.33 -0.298,-0.371 -0.424,-0.941 -0.389,-1.715 0.039,-0.774 0.059,-1.472 0.059,-2.099 v -7.071 c 0,-0.295 -0.01,-0.6 -0.03,-0.912 -0.018,-0.314 -0.029,-0.618 -0.029,-0.912 v -0.802 c 0,-0.24 -0.035,-0.451 -0.109,-0.634 -0.109,-0.331 -0.332,-0.553 -0.663,-0.665 -0.184,-0.073 -0.405,-0.11 -0.663,-0.11 h -0.829 -2.487 c -0.589,0 -1.215,-0.009 -1.878,-0.026 -0.663,-0.021 -1.159,0.099 -1.492,0.358 -0.294,0.185 -0.44,0.525 -0.44,1.021 v 1.465 33.595 c 0,0.403 -0.008,0.828 -0.028,1.27 -0.02,0.44 0.064,0.79 0.247,1.048 0.148,0.221 0.424,0.406 0.829,0.555 0.074,0.035 0.158,0.044 0.249,0.026 0.092,-0.018 0.176,-0.009 0.249,0.028 h 18.785 c 0.59,0 1.151,-0.01 1.688,-0.028 0.53,-0.018 1.039,-0.082 1.518,-0.194 0.182,-0.072 0.377,-0.108 0.579,-0.108 0.202,0 0.395,-0.038 0.582,-0.111 C 0.867,12.688 1.128,12.614 1.383,12.542 1.641,12.467 1.899,12.375 2.158,12.264 3.077,11.858 3.926,11.362 4.7,10.773 5.47,10.183 6.116,9.502 6.633,8.729 6.779,8.544 6.899,8.352 6.991,8.149 7.082,7.945 7.202,7.752 7.352,7.567 7.645,7.053 7.866,6.521 8.016,5.965 8.161,5.415 8.324,4.806 8.51,4.142 8.546,3.994 8.556,3.846 8.54,3.702 8.52,3.553 8.546,3.404 8.62,3.259 V 2.761 C 8.696,2.467 8.712,2.108 8.676,1.685 8.638,1.26 8.583,0.919 8.51,0.663 8.437,0.367 8.402,0.099 8.402,-0.139 8.402,-0.381 8.365,-0.628 8.29,-0.886 8.104,-1.438 7.922,-1.962 7.738,-2.46 7.552,-2.956 7.313,-3.427 7.018,-3.869 6.945,-3.979 6.852,-4.1 6.742,-4.228 6.633,-4.358 6.542,-4.478 6.465,-4.587 6.356,-4.735 6.237,-4.882 6.105,-5.028 5.978,-5.177 5.84,-5.305 5.694,-5.416 5.47,-5.601 5.251,-5.785 5.03,-5.967 4.811,-6.153 4.568,-6.337 4.313,-6.521 4.165,-6.63 4.017,-6.75 3.869,-6.88 3.723,-7.011 3.61,-7.166 3.538,-7.351 3.464,-7.571 3.503,-7.755 3.646,-7.902 3.796,-8.05 3.926,-8.16 4.033,-8.234 4.403,-8.528 4.77,-8.825 5.14,-9.118 c 0.366,-0.295 0.682,-0.646 0.939,-1.049 0.442,-0.628 0.793,-1.271 1.05,-1.936 0.259,-0.663 0.498,-1.417 0.718,-2.265 0.075,-0.331 0.12,-0.68 0.141,-1.049 0.014,-0.368 0.061,-0.718 0.136,-1.048 0,-0.222 0.008,-0.434 0.026,-0.637 0.02,-0.203 0.028,-0.413 0.028,-0.634 0.038,-0.15 0.048,-0.304 0.03,-0.471 -0.02,-0.165 -0.01,-0.341 0.024,-0.524 0.037,-0.15 0.05,-0.296 0.03,-0.443 -0.019,-0.147 -0.01,-0.313 0.028,-0.497 0.075,-0.369 0.112,-0.754 0.112,-1.161 0,-0.403 0.035,-0.792 0.108,-1.16 l 0.166,-0.995 c 0.073,-0.331 0.147,-0.662 0.221,-0.993 0.075,-0.333 0.151,-0.645 0.22,-0.939"
         style="fill:#52536b;fill-opacity:1;fill-rule:nonzero;stroke:none"
         id="path564"
         inkscape:connector-curvature="0" />
    </g>
    <g
       id="g566"
       transform="matrix(0.35277777,0,0,-0.35277777,146.69552,89.93566)"
       inkscape:export-xdpi="146"
       inkscape:export-ydpi="146">
      <path
         d="m 0,0 c 7.146,0.112 12.063,-2.008 14.752,-6.353 0.37,-0.59 0.655,-1.199 0.857,-1.824 0.202,-0.627 0.395,-1.307 0.58,-2.046 0.074,-0.294 0.102,-0.635 0.084,-1.022 -0.018,-0.385 -0.103,-0.671 -0.248,-0.856 -0.187,-0.219 -0.443,-0.359 -0.773,-0.414 -0.334,-0.054 -0.702,-0.081 -1.108,-0.081 H 10.665 9.669 c -0.331,0 -0.608,0.035 -0.828,0.108 -0.441,0.185 -0.718,0.48 -0.829,0.886 -0.111,0.403 -0.256,0.809 -0.443,1.214 -0.148,0.368 -0.351,0.755 -0.608,1.161 -0.256,0.405 -0.533,0.718 -0.827,0.94 -0.515,0.366 -1.015,0.681 -1.493,0.939 -0.443,0.183 -0.985,0.339 -1.63,0.469 -0.645,0.129 -1.307,0.212 -1.989,0.248 -0.681,0.036 -1.353,0.02 -2.017,-0.055 -0.662,-0.075 -1.253,-0.222 -1.767,-0.441 -0.848,-0.369 -1.502,-0.802 -1.962,-1.299 -0.462,-0.497 -0.783,-1.243 -0.968,-2.239 -0.073,-0.256 -0.091,-0.542 -0.054,-0.855 0.037,-0.313 0.092,-0.562 0.166,-0.746 0.294,-0.772 0.709,-1.318 1.243,-1.63 0.535,-0.314 1.169,-0.617 1.906,-0.91 0.403,-0.187 0.818,-0.324 1.243,-0.417 0.424,-0.09 0.857,-0.211 1.298,-0.358 0.995,-0.331 2.015,-0.618 3.067,-0.856 1.05,-0.241 2.089,-0.506 3.123,-0.801 0.183,-0.075 0.368,-0.112 0.553,-0.112 0.182,0 0.365,-0.035 0.551,-0.109 0.736,-0.257 1.503,-0.499 2.291,-0.721 0.794,-0.218 1.502,-0.532 2.128,-0.937 0.992,-0.626 1.853,-1.253 2.572,-1.88 0.717,-0.625 1.387,-1.435 2.014,-2.429 0.185,-0.296 0.341,-0.627 0.468,-0.995 0.133,-0.37 0.27,-0.737 0.418,-1.105 0.037,-0.111 0.055,-0.213 0.055,-0.304 0,-0.091 0.017,-0.175 0.053,-0.249 0.151,-0.589 0.223,-1.327 0.223,-2.209 0.074,-0.186 0.074,-0.369 0,-0.554 v -0.994 c -0.072,-0.406 -0.138,-0.792 -0.194,-1.16 -0.053,-0.368 -0.137,-0.738 -0.247,-1.105 -0.225,-0.663 -0.463,-1.272 -0.719,-1.823 -0.258,-0.553 -0.573,-1.088 -0.94,-1.602 -0.149,-0.186 -0.294,-0.343 -0.441,-0.47 -0.148,-0.13 -0.277,-0.287 -0.387,-0.471 -0.186,-0.221 -0.387,-0.432 -0.607,-0.635 -0.222,-0.204 -0.465,-0.397 -0.72,-0.58 -0.186,-0.148 -0.378,-0.296 -0.579,-0.442 -0.204,-0.147 -0.417,-0.296 -0.635,-0.441 -0.626,-0.407 -1.281,-0.737 -1.963,-0.994 C 9.513,-39.818 8.803,-40.075 8.067,-40.332 7.551,-40.516 7.018,-40.637 6.464,-40.693 5.912,-40.748 5.358,-40.832 4.81,-40.941 4.549,-41.016 4.299,-41.043 4.061,-41.024 3.82,-41.005 3.59,-41.032 3.372,-41.107 H 2.928 c -0.075,0 -0.176,0.008 -0.304,0.026 -0.128,0.019 -0.23,0.011 -0.303,-0.026 -0.185,-0.037 -0.498,-0.055 -0.94,-0.055 -0.442,0 -0.756,0.018 -0.938,0.055 h -0.555 c -0.258,0.075 -0.523,0.102 -0.8,0.083 -0.276,-0.019 -0.523,0.008 -0.745,0.083 -0.184,0 -0.351,0.009 -0.497,0.026 -0.147,0.02 -0.314,0.048 -0.497,0.083 -0.442,0.111 -0.904,0.204 -1.381,0.277 -0.48,0.073 -0.922,0.185 -1.329,0.332 -1.802,0.588 -3.388,1.335 -4.749,2.236 -1.363,0.904 -2.507,2.092 -3.426,3.564 -0.59,0.885 -1.05,1.935 -1.383,3.151 -0.073,0.22 -0.12,0.441 -0.137,0.663 -0.019,0.22 -0.064,0.46 -0.138,0.718 -0.075,0.295 -0.128,0.654 -0.167,1.078 -0.035,0.423 0.039,0.745 0.223,0.967 0.182,0.293 0.45,0.469 0.801,0.524 0.35,0.055 0.745,0.084 1.188,0.084 h 3.48 0.938 c 0.332,0 0.629,-0.057 0.886,-0.168 0.405,-0.183 0.644,-0.489 0.717,-0.91 0.074,-0.424 0.202,-0.858 0.387,-1.299 0.147,-0.442 0.329,-0.848 0.555,-1.216 0.219,-0.368 0.459,-0.717 0.715,-1.048 0.185,-0.222 0.389,-0.426 0.608,-0.609 0.223,-0.185 0.442,-0.35 0.663,-0.496 0.81,-0.517 1.804,-0.94 2.984,-1.273 0.257,-0.073 0.506,-0.11 0.746,-0.11 0.24,0 0.508,-0.037 0.802,-0.11 h 0.277 c 0.293,-0.076 0.698,-0.112 1.214,-0.112 0.515,0 0.919,0.036 1.217,0.112 0.11,0.038 0.295,0.054 0.55,0.054 0.185,0.036 0.38,0.063 0.585,0.085 0.199,0.017 0.392,0.065 0.578,0.136 1.252,0.332 2.246,0.774 2.983,1.327 0.735,0.552 1.251,1.473 1.546,2.764 0.074,0.257 0.084,0.55 0.027,0.883 -0.056,0.331 -0.119,0.59 -0.191,0.775 -0.37,0.993 -0.995,1.766 -1.878,2.318 -0.112,0.073 -0.315,0.185 -0.608,0.332 -0.553,0.332 -1.172,0.599 -1.854,0.802 -0.68,0.201 -1.351,0.414 -2.014,0.635 -0.26,0.074 -0.509,0.14 -0.745,0.193 -0.242,0.055 -0.507,0.12 -0.802,0.193 -0.592,0.184 -1.191,0.342 -1.798,0.471 -0.607,0.13 -1.19,0.285 -1.739,0.469 -0.184,0.073 -0.331,0.111 -0.442,0.111 -0.111,0 -0.239,0.036 -0.386,0.111 -0.297,0.073 -0.561,0.145 -0.803,0.22 -0.238,0.073 -0.506,0.146 -0.8,0.221 -0.85,0.294 -1.661,0.599 -2.432,0.912 -0.774,0.314 -1.49,0.672 -2.156,1.077 -0.845,0.554 -1.62,1.197 -2.319,1.934 -0.7,0.738 -1.254,1.584 -1.658,2.542 -0.147,0.331 -0.257,0.671 -0.332,1.021 -0.075,0.35 -0.165,0.728 -0.275,1.133 -0.074,0.332 -0.13,0.809 -0.165,1.438 -0.038,0.626 -0.02,1.139 0.056,1.547 0.035,0.145 0.052,0.368 0.052,0.662 0.11,0.404 0.204,0.792 0.28,1.16 0.071,0.369 0.18,0.738 0.332,1.106 0.551,1.288 1.26,2.384 2.124,3.286 0.866,0.902 1.87,1.723 3.011,2.46 0.737,0.442 1.53,0.792 2.376,1.049 0.847,0.258 1.751,0.497 2.709,0.718 0.369,0.072 0.725,0.12 1.076,0.139 0.351,0.019 0.708,0.065 1.077,0.138 0.111,0.037 0.285,0.037 0.525,0 C -0.23,-0.092 -0.074,-0.074 0,0"
         style="fill:#52536b;fill-opacity:1;fill-rule:nonzero;stroke:none"
         id="path568"
         inkscape:connector-curvature="0" />
    </g>
    <g
       id="g570"
       transform="matrix(0.35277777,0,0,-0.35277777,155.29156,90.227972)"
       inkscape:export-xdpi="146"
       inkscape:export-ydpi="146">
      <path
         d="m 0,0 h 20.664 4.808 c 0.442,0 0.863,-0.019 1.272,-0.054 0.404,-0.039 0.697,-0.186 0.882,-0.442 0.075,-0.113 0.118,-0.241 0.139,-0.388 0.018,-0.148 0.063,-0.295 0.137,-0.441 v -0.607 c 0.039,-0.26 0.047,-0.535 0.027,-0.83 -0.017,-0.296 -0.027,-0.573 -0.027,-0.829 0,-0.295 0.01,-0.581 0.027,-0.858 0.02,-0.275 0.012,-0.542 -0.027,-0.8 -0.037,-0.184 -0.057,-0.461 -0.057,-0.83 -0.107,-0.44 -0.295,-0.734 -0.551,-0.882 -0.22,-0.146 -0.498,-0.222 -0.828,-0.222 h -1.05 -3.811 -10.002 c -0.295,0 -0.635,0.01 -1.021,0.029 -0.387,0.016 -0.776,0.016 -1.163,0 C 9.035,-7.173 8.675,-7.211 8.343,-7.266 8.013,-7.319 7.771,-7.403 7.625,-7.513 7.367,-7.7 7.21,-7.964 7.154,-8.315 7.099,-8.666 7.074,-9.063 7.074,-9.502 v -3.152 -1.601 c 0.074,-0.296 0.144,-0.543 0.218,-0.746 0.075,-0.203 0.204,-0.358 0.389,-0.47 0.219,-0.147 0.477,-0.23 0.772,-0.248 0.297,-0.018 0.609,-0.028 0.941,-0.028 h 2.981 9.507 c 0.254,0 0.578,0.01 0.965,0.028 0.385,0.018 0.766,0.018 1.133,0 0.367,-0.018 0.711,-0.047 1.021,-0.083 0.313,-0.037 0.545,-0.111 0.69,-0.221 0.185,-0.111 0.314,-0.331 0.389,-0.665 0.07,-0.33 0.117,-0.689 0.136,-1.074 0.02,-0.389 0.02,-0.784 0,-1.19 -0.019,-0.405 -0.027,-0.755 -0.027,-1.048 v -0.775 c 0,-0.258 -0.039,-0.479 -0.109,-0.663 -0.075,-0.294 -0.221,-0.534 -0.442,-0.718 -0.183,-0.111 -0.435,-0.185 -0.748,-0.221 -0.312,-0.037 -0.664,-0.054 -1.047,-0.054 -0.388,0 -0.773,0.008 -1.162,0.028 -0.389,0.018 -0.711,0.026 -0.967,0.026 H 10.939 c -0.439,0 -0.863,0.008 -1.27,0.026 -0.406,0.019 -0.785,0 -1.132,-0.052 C 8.187,-22.46 7.89,-22.57 7.652,-22.735 7.412,-22.901 7.24,-23.152 7.128,-23.481 7.089,-23.667 7.074,-23.86 7.074,-24.062 v -0.58 -2.1 -3.094 c 0,-0.441 0.025,-0.84 0.08,-1.188 0.056,-0.35 0.213,-0.616 0.471,-0.801 0.111,-0.11 0.248,-0.174 0.416,-0.193 0.164,-0.019 0.337,-0.067 0.523,-0.138 h 0.553 c 0.183,-0.037 0.384,-0.046 0.607,-0.028 0.221,0.019 0.424,0.028 0.608,0.028 h 2.322 10.385 2.931 0.854 c 0.277,0 0.525,-0.057 0.748,-0.166 0.293,-0.112 0.496,-0.313 0.607,-0.609 0.072,-0.184 0.119,-0.405 0.137,-0.663 0.019,-0.258 0.027,-0.533 0.027,-0.828 v -2.541 c 0,-0.442 -0.019,-0.858 -0.054,-1.244 -0.038,-0.387 -0.202,-0.672 -0.497,-0.857 -0.22,-0.183 -0.507,-0.276 -0.855,-0.276 H 25.802 21.658 5.302 0.939 c -0.517,0 -0.966,0.028 -1.354,0.083 -0.386,0.056 -0.672,0.23 -0.856,0.527 -0.149,0.219 -0.22,0.505 -0.22,0.855 v 1.021 3.979 15.027 12.046 3.426 0.994 c 0,0.332 0.071,0.59 0.22,0.773 0.146,0.258 0.423,0.443 0.83,0.555 0.073,0.035 0.147,0.044 0.221,0.026 C -0.147,-0.046 -0.076,-0.037 0,0"
         style="fill:#52536b;fill-opacity:1;fill-rule:nonzero;stroke:none"
         id="path572"
         inkscape:connector-curvature="0" />
    </g>
  </g>
</svg>
