<?xml version="1.0" encoding="UTF-8" standalone="no"?>
<!-- Generator: Adobe Illustrator 16.0.0, SVG Export Plug-In . SVG Version: 6.00 Build 0)  -->

<svg
   xmlns:dc="http://purl.org/dc/elements/1.1/"
   xmlns:cc="http://creativecommons.org/ns#"
   xmlns:rdf="http://www.w3.org/1999/02/22-rdf-syntax-ns#"
   xmlns:svg="http://www.w3.org/2000/svg"
   xmlns="http://www.w3.org/2000/svg"
   xmlns:sodipodi="http://sodipodi.sourceforge.net/DTD/sodipodi-0.dtd"
   xmlns:inkscape="http://www.inkscape.org/namespaces/inkscape"
   version="1.1"
   id="Capa_1"
   x="0px"
   y="0px"
   width="512px"
   height="512px"
   viewBox="0 0 512 512"
   enable-background="new 0 0 512 512"
   xml:space="preserve"
   sodipodi:docname="picto-twitter.svg"
   inkscape:version="0.92.1 r15371"><sodipodi:namedview
     pagecolor="#ffffff"
     bordercolor="#666666"
     borderopacity="1"
     objecttolerance="10"
     gridtolerance="10"
     guidetolerance="10"
     inkscape:pageopacity="0"
     inkscape:pageshadow="2"
     inkscape:window-width="1920"
     inkscape:window-height="1138"
     id="namedview4492"
     showgrid="false"
     inkscape:zoom="1.4620543"
     inkscape:cx="256"
     inkscape:cy="210.75546"
     inkscape:window-x="-8"
     inkscape:window-y="-8"
     inkscape:window-maximized="1"
     inkscape:current-layer="Capa_1"
     inkscape:pagecheckerboard="true" /><metadata
     id="metadata4496"><rdf:RDF><cc:Work
         rdf:about=""><dc:format>image/svg+xml</dc:format><dc:type
           rdf:resource="http://purl.org/dc/dcmitype/StillImage" /><dc:title></dc:title></cc:Work></rdf:RDF></metadata><defs
     id="defs4494" /><path
     inkscape:connector-curvature="0"
     id="path4485"
     d="M 256,0 C 114.609,0 0,114.609 0,256 0,397.391 114.609,512 256,512 397.391,512 512,397.391 512,256 512,114.609 397.391,0 256,0 Z m 0,472 C 136.703,472 40,375.297 40,256 40,136.703 136.703,40 256,40 c 119.297,0 216,96.703 216,216 0,119.297 -96.703,216 -216,216 z"
     style="stroke:#4c5164;stroke-opacity:1;fill:#4c5164;fill-opacity:1;opacity:1" /><g
     style="fill:#4c5164;fill-opacity:0.98588335;opacity:1"
     id="g6559"
     transform="matrix(0.76147102,0,0,0.77609331,91.359665,82.107834)"><path
       style="fill:#4c5164;fill-opacity:0.98588335;opacity:1"
       d="m 381.384,198.639 c 24.157,-1.993 40.543,-12.975 46.849,-27.876 -8.714,5.353 -35.764,11.189 -50.703,5.631 -0.732,-3.51 -1.55,-6.844 -2.353,-9.854 -11.383,-41.798 -50.357,-75.472 -91.194,-71.404 3.304,-1.334 6.655,-2.576 9.996,-3.691 4.495,-1.61 30.868,-5.901 26.715,-15.21 -3.5,-8.188 -35.722,6.188 -41.789,8.067 8.009,-3.012 21.254,-8.193 22.673,-17.396 -12.27,1.683 -24.315,7.484 -33.622,15.919 3.36,-3.617 5.909,-8.025 6.45,-12.769 C 241.68,90.963 222.563,133.113 207.092,174 194.944,162.227 184.177,152.956 174.518,147.808 147.421,133.277 115.022,118.116 64.163,99.236 c -1.561,16.827 8.322,39.201 36.8,54.08 -6.17,-0.826 -17.453,1.017 -26.477,3.178 3.675,19.277 15.677,35.159 48.169,42.839 -14.849,0.98 -22.523,4.359 -29.478,11.642 6.763,13.407 23.266,29.186 52.953,25.947 -33.006,14.226 -13.458,40.571 13.399,36.642 C 113.713,320.887 41.479,317.409 0,277.828 108.299,425.4 343.716,365.102 378.799,222.962 c 26.285,0.224 41.737,-9.105 51.318,-19.39 -15.144,2.57 -37.094,-0.086 -48.733,-4.933 z"
       id="Twitter__x28_alt_x29_"
       inkscape:connector-curvature="0" /></g></svg>