<?xml version="1.0" encoding="UTF-8" standalone="no"?>
<!-- Generator: Adobe Illustrator 16.0.0, SVG Export Plug-In . SVG Version: 6.00 Build 0)  -->

<svg
   xmlns:dc="http://purl.org/dc/elements/1.1/"
   xmlns:cc="http://creativecommons.org/ns#"
   xmlns:rdf="http://www.w3.org/1999/02/22-rdf-syntax-ns#"
   xmlns:svg="http://www.w3.org/2000/svg"
   xmlns="http://www.w3.org/2000/svg"
   xmlns:sodipodi="http://sodipodi.sourceforge.net/DTD/sodipodi-0.dtd"
   xmlns:inkscape="http://www.inkscape.org/namespaces/inkscape"
   version="1.1"
   id="Capa_1"
   x="0px"
   y="0px"
   width="512px"
   height="512px"
   viewBox="0 0 512 512"
   enable-background="new 0 0 512 512"
   xml:space="preserve"
   sodipodi:docname="picto-mail.svg"
   inkscape:version="0.92.1 r15371"><sodipodi:namedview
     pagecolor="#ffffff"
     bordercolor="#666666"
     borderopacity="1"
     objecttolerance="10"
     gridtolerance="10"
     guidetolerance="10"
     inkscape:pageopacity="0"
     inkscape:pageshadow="2"
     inkscape:window-width="1449"
     inkscape:window-height="821"
     id="namedview4492"
     showgrid="false"
     inkscape:zoom="1.0338285"
     inkscape:cx="177.43904"
     inkscape:cy="280.33409"
     inkscape:window-x="75"
     inkscape:window-y="75"
     inkscape:window-maximized="0"
     inkscape:current-layer="Capa_1"
     inkscape:pagecheckerboard="true" /><metadata
     id="metadata4496"><rdf:RDF><cc:Work
         rdf:about=""><dc:format>image/svg+xml</dc:format><dc:type
           rdf:resource="http://purl.org/dc/dcmitype/StillImage" /><dc:title></dc:title></cc:Work></rdf:RDF></metadata><defs
     id="defs4494" /><path
     style="stroke:#4c5164;stroke-opacity:1;fill:#4c5164;fill-opacity:1;opacity:1"
     d="M 256,0 C 114.609,0 0,114.609 0,256 0,397.391 114.609,512 256,512 397.391,512 512,397.391 512,256 512,114.609 397.391,0 256,0 Z m 0,472 C 136.703,472 40,375.297 40,256 40,136.703 136.703,40 256,40 c 119.297,0 216,96.703 216,216 0,119.297 -96.703,216 -216,216 z"
     id="path4485"
     inkscape:connector-curvature="0" /><path
     inkscape:connector-curvature="0"
     style="opacity:1;fill:#4c5164;fill-opacity:1;stroke:#4c5164;stroke-width:0.25764415;stroke-opacity:1"
     id="path10039"
     d="M 123.40169,326.71211 V 175.92484 q 0,-0.26178 0.76071,-4.97388 l 85.96032,75.9172 -85.70675,85.07961 q -1.01428,-3.66495 -1.01428,-5.23566 z m 11.41067,-166.23249 q 1.77498,-0.78535 4.31068,-0.78535 h 231.50965 q 2.28214,0 4.56427,0.78535 l -86.2139,76.17899 -11.41065,9.42419 -22.56776,19.1102 -22.56775,-19.1102 -11.41067,-9.42419 z m 0.25356,181.67771 86.46746,-85.60319 33.47127,28.01084 33.47128,-28.01084 86.46745,85.60319 q -2.02855,0.78536 -4.31069,0.78536 H 139.12304 q -2.02856,0 -4.05712,-0.78536 z m 164.82067,-95.28917 85.70675,-75.9172 q 0.76071,2.35605 0.76071,4.97388 v 150.78727 q 0,2.35605 -0.76071,5.23566 z" /></svg>