<?xml version="1.0" encoding="UTF-8" standalone="no"?>
<!-- Generator: Adobe Illustrator 16.0.0, SVG Export Plug-In . SVG Version: 6.00 Build 0)  -->

<svg
   xmlns:dc="http://purl.org/dc/elements/1.1/"
   xmlns:cc="http://creativecommons.org/ns#"
   xmlns:rdf="http://www.w3.org/1999/02/22-rdf-syntax-ns#"
   xmlns:svg="http://www.w3.org/2000/svg"
   xmlns="http://www.w3.org/2000/svg"
   xmlns:sodipodi="http://sodipodi.sourceforge.net/DTD/sodipodi-0.dtd"
   xmlns:inkscape="http://www.inkscape.org/namespaces/inkscape"
   version="1.1"
   id="Capa_1"
   x="0px"
   y="0px"
   width="512px"
   height="512px"
   viewBox="0 0 512 512"
   enable-background="new 0 0 512 512"
   xml:space="preserve"
   sodipodi:docname="picto-github.svg"
   inkscape:version="0.92.1 r15371"><sodipodi:namedview
     pagecolor="#ffffff"
     bordercolor="#666666"
     borderopacity="1"
     objecttolerance="10"
     gridtolerance="10"
     guidetolerance="10"
     inkscape:pageopacity="0"
     inkscape:pageshadow="2"
     inkscape:window-width="1549"
     inkscape:window-height="918"
     id="namedview4492"
     showgrid="false"
     inkscape:zoom="1.0338285"
     inkscape:cx="133.91151"
     inkscape:cy="210.75546"
     inkscape:window-x="88"
     inkscape:window-y="95"
     inkscape:window-maximized="0"
     inkscape:current-layer="Capa_1"
     inkscape:pagecheckerboard="true" /><metadata
     id="metadata4496"><rdf:RDF><cc:Work
         rdf:about=""><dc:format>image/svg+xml</dc:format><dc:type
           rdf:resource="http://purl.org/dc/dcmitype/StillImage" /><dc:title></dc:title></cc:Work></rdf:RDF></metadata><defs
     id="defs4494" /><path
     style="stroke:#4c5164;stroke-opacity:1;fill:#4c5164;fill-opacity:1;opacity:1"
     d="M 256,0 C 114.609,0 0,114.609 0,256 0,397.391 114.609,512 256,512 397.391,512 512,397.391 512,256 512,114.609 397.391,0 256,0 Z m 0,472 C 136.703,472 40,375.297 40,256 40,136.703 136.703,40 256,40 c 119.297,0 216,96.703 216,216 0,119.297 -96.703,216 -216,216 z"
     id="path4485"
     inkscape:connector-curvature="0" /><path
     style="clip-rule:evenodd;opacity:1;fill:#4c5164;fill-opacity:1;fill-rule:evenodd;stroke:#4c5164;stroke-width:0.37668025;stroke-opacity:1"
     inkscape:connector-curvature="0"
     id="path8905"
     d="m 308.6767,360.16607 c 12.29828,14.54174 12.92867,31.11863 12.73271,47.92659 -0.23764,20.35143 -0.0463,40.70422 -0.0208,61.05702 0.009,6.53662 -0.18553,6.71495 -7.96315,6.71427 -32.62644,-0.004 -65.25287,0 -97.87972,-0.003 -7.2769,0 -7.9298,-0.56732 -7.91979,-6.53015 0.0229,-12.98034 0.008,-25.96068 0.008,-39.63663 -5.62799,0.47032 -11.27266,0.96345 -16.92233,1.40996 -27.56671,2.17842 -51.59293,-3.57239 -70.19211,-21.16344 -2.60324,-2.46259 -4.68159,-5.31213 -6.83039,-8.07285 -9.46906,-12.16934 -18.639625,-24.49931 -28.443065,-36.48453 -3.03434,-3.70852 -7.73093,-6.50973 -11.65664,-9.73363 -2.06751,-1.69754 -4.11499,-3.4121 -6.54855,-5.43329 6.80203,-3.60846 13.3164,-2.62662 19.48513,-1.85136 15.401005,1.93576 25.813145,9.72172 34.059805,20.05024 4.10457,5.1406 8.35173,10.38331 13.62284,14.68978 16.88106,13.79269 37.38431,18.24312 60.60755,13.94311 14.97949,-2.77433 12.0744,-1.48688 14.312,-12.65634 1.49466,-7.46026 4.01493,-14.56557 8.9892,-21.00792 0.82466,-1.06896 1.50799,-2.21007 2.52403,-3.71396 -6.57315,-1.05875 -12.71187,-1.90752 -18.76804,-3.04795 -24.02956,-4.52292 -46.18715,-12.16934 -63.72235,-26.87206 -18.58335,-15.58314 -28.64152,-34.24553 -29.34111,-56.14748 -0.58827,-18.40443 -0.44985,-36.75406 4.65574,-54.8328 3.27656,-11.6044 9.20099,-22.00167 19.6002,-30.62414 1.61139,-1.3368 2.55488,-4.50318 1.80401,-6.24803 -7.40865,-17.22146 -6.39304,-34.24553 0.45278,-51.3683 1.17696,-2.94483 2.41729,-3.65441 6.01989,-2.8509 13.21426,2.94858 24.52611,8.51425 33.96099,16.4918 6.43848,5.44384 12.33122,11.32023 18.72551,17.24188 16.32281,-9.62608 35.63534,-9.96403 54.69022,-10.87201 21.06734,-1.00362 42.1522,-0.7317 62.85475,2.93156 8.03986,1.42323 15.687,4.32552 22.83382,6.36067 8.39676,-6.51212 17.0691,-13.14165 25.60635,-19.88621 7.71009,-6.09113 16.84187,-9.88541 27.14353,-12.13156 3.94322,-0.85966 5.94402,-0.0953 7.27941,3.04625 7.08637,16.66673 8.28293,33.32666 0.32144,50.03423 -1.1607,2.43706 -1.95744,4.73017 0.78548,6.87048 13.92719,10.87168 20.85597,24.56159 22.32853,39.90275 1.5551,16.19981 3.42124,32.53711 2.44523,48.70628 -1.81235,30.00542 -20.06007,52.53731 -51.76595,67.68926 -16.99821,8.12355 -35.55696,12.57875 -54.94119,14.92495 -1.11068,0.13408 -2.23219,0.22529 -3.32661,0.41928 -0.44234,0.0796 -0.82675,0.3798 -1.6068,0.75756 z" /></svg>